<svg xmlns="http://www.w3.org/2000/svg" viewBox="0 0 130 36" width="474" height="131">
	<style>
		tspan { white-space:pre }
		.shp0 { fill: #7289da } 
	</style>
	<path id="Layer" class="shp0" d="M19.6 19.1C18.55 19.1 17.7 18.21 17.7 17.1C17.7 15.99 18.55 15.1 19.6 15.1C20.65 15.1 21.5 15.99 21.5 17.1C21.5 18.21 20.65 19.1 19.6 19.1Z" />
	<path id="Layer" class="shp0" d="M12.8 19.1C11.75 19.1 10.9 18.21 10.9 17.1C10.9 15.99 11.75 15.1 12.8 15.1C13.85 15.1 14.7 15.99 14.7 17.1C14.7 18.21 13.85 19.1 12.8 19.1Z" />
	<path id="Layer" fill-rule="evenodd" class="shp0" d="M32.4 3.7L32.4 35.9L28.4 32.5L26.2 30.5L23.8 28.4L24.8 31.7L3.8 31.7C1.7 31.7 0 30.1 0 28L0 3.7C0 1.7 1.7 0 3.8 0L28.5 0C30.6 0 32.3 1.7 32.4 3.7ZM27.2 20.9C27.2 15.1 24.5 10.4 24.5 10.4C21.8 8.4 19.3 8.5 19.3 8.5L19 8.8C22.1 9.7 23.6 11.1 23.6 11.1C21.6 10.1 19.8 9.6 18 9.4C16.7 9.2 15.4 9.3 14.3 9.4L14 9.4C13.3 9.4 11.8 9.7 9.8 10.5C9.1 10.8 8.7 11 8.7 11C8.7 11 10.2 9.5 13.5 8.7L13.3 8.5C13.3 8.5 10.8 8.4 8.1 10.4C8.1 10.4 5.4 15.1 5.4 20.9C5.4 20.9 6.9 23.5 11 23.6C11 23.6 11.6 22.8 12.2 22.1C9.9 21.4 9 20 9 20C9 20 9.2 20.1 9.5 20.3L9.6 20.3C9.7 20.3 9.7 20.4 9.8 20.4C10.3 20.6 10.8 20.8 11.2 21C11.9 21.3 12.8 21.6 13.9 21.8C15.3 22 16.9 22.1 18.7 21.8C19.6 21.6 20.5 21.4 21.4 21C22 20.7 22.7 20.4 23.5 19.9C23.5 19.9 22.6 21.3 20.2 22C20.7 22.7 21.4 23.5 21.4 23.5C25.5 23.4 27.1 20.8 27.2 20.9ZM45.2 7.8C48.5 7.8 51.6 9.4 51.6 13.2L51.6 18.6C51.6 22.3 48.5 23.9 45.2 23.9L39.1 23.9L39.1 20.1L45.4 20.1C46.9 20.1 47.5 19.3 47.5 18.3L47.5 13.3C47.5 12.3 46.8 11.6 45.4 11.6L43.2 11.6L43.2 18.2L39.1 14.6L39.1 7.8L45.2 7.8ZM77.4 18.6C77.4 20.6 81.1 21.1 82 18.9L85.7 20.5C84.3 23.1 81.9 24.1 79.8 24.1C76.5 24.1 73.3 22.3 73.3 18.6L73.3 13C73.3 9.4 76.5 7.5 79.8 7.5C81.8 7.5 84.3 8.3 85.6 11.2L82.2 12.5C81.1 10.5 77.4 11 77.4 13L77.4 18.6ZM66.2 13.8C69.1 14.3 72 15.3 71.9 19.3C71.7 22.4 68.4 24.1 65.4 24.1C63.4 24.1 61.3 23.1 59.8 21.2L62.4 18.8C64.1 20.7 67.7 20.8 67.8 19.1C67.8 18.2 66.3 17.7 65 17.5C62.3 17.1 59.9 15.5 59.9 12.4C59.9 9.3 62.8 7.6 65.8 7.6C67.8 7.6 69.7 8.2 71.4 10.2L68.7 12.2C67 10.4 64.1 10.4 64 12.3C64.1 13.1 64.9 13.5 66.2 13.8ZM53.9 23.9L53.9 7.8L58 7.8L58 23.9L53.9 23.9ZM130 13.2L130 18.6C130 22.3 126.9 23.9 123.6 23.9L117.5 23.9L117.5 20.1L123.8 20.1C125.3 20.1 125.9 19.3 125.9 18.3L125.9 13.3C125.9 12.3 125.2 11.6 123.8 11.6L121.6 11.6L121.6 18.2L117.5 14.6L117.5 7.8L123.6 7.8C126.9 7.8 130 9.4 130 13.2ZM93.5 7.6C96.9 7.6 100.3 9.4 100.3 13.1L100.3 18.6C100.3 22.3 96.9 24.1 93.5 24.1C90.1 24.1 86.7 22.3 86.7 18.6L86.7 13.1C86.7 9.4 90.1 7.6 93.5 7.6ZM96.2 13.1C96.2 11.9 94.8 11.3 93.5 11.3C92.2 11.3 90.9 11.9 90.9 13.1L90.9 18.6C90.9 19.8 92.3 20.4 93.6 20.4C94.9 20.4 96.2 19.8 96.2 18.6L96.2 13.1ZM115.2 13.1C115.2 16.1 114 17.8 111.9 18.4L116.4 23.9L111.2 23.9L107.4 18.8L106.7 18.8L106.7 23.9L102.5 23.9L102.5 7.8L109.1 7.8C112.5 7.8 115.1 9.3 115.2 13.1ZM109.2 11.6L106.8 11.6L106.8 15.3L109.2 15.3C111.8 15.3 111.8 11.6 109.2 11.6Z" />
</svg>