<svg xmlns="http://www.w3.org/2000/svg" viewBox="0 0 609 609" width="600" height="600">
	<defs>
		<clipPath clipPathUnits="userSpaceOnUse" id="cp1">
			<path d="M-737 -654L1346 -654L1346 1429L-737 1429Z" />
		</clipPath>
	</defs>
	<style>
		tspan { white-space:pre }
		.shp0 { fill: #97b2e0 } 
	</style>
	<g id="Page 1" clip-path="url(#cp1)">
		<path id="Path 2" fill-rule="evenodd" class="shp0" d="M151.02 344.06L151.02 336.13L458.3 336.13L458.3 344.06C458.3 354.17 450.12 362.35 440.04 362.35L169.27 362.35C159.2 362.35 151.02 354.17 151.02 344.06ZM458.31 177.18L458.31 316.64L151.03 316.64L151.03 177.18C151.03 167.11 159.21 158.93 169.29 158.93L296.42 158.93L296.42 76.14L312.89 76.14L312.89 158.93L440.06 158.93C450.13 158.93 458.31 167.11 458.31 177.18ZM259.92 246.61C259.92 232.15 248.19 220.43 233.73 220.43C219.27 220.43 207.51 232.15 207.51 246.61C207.51 261.07 219.27 272.8 233.73 272.8C248.19 272.8 259.92 261.07 259.92 246.61ZM401.8 246.61C401.8 232.15 390.07 220.43 375.61 220.43C361.15 220.43 349.42 232.15 349.42 246.61C349.42 261.07 361.15 272.8 375.61 272.8C390.07 272.8 401.8 261.07 401.8 246.61ZM345.53 384.81L273.03 384.81C265 384.81 258.49 378.3 258.49 370.27L330.99 370.27C339.02 370.27 345.53 376.78 345.53 384.81ZM330.99 391.24C339.02 391.24 345.53 397.74 345.53 405.77L273.03 405.77C265 405.77 258.49 399.26 258.49 391.24L330.99 391.24Z" />
		<path id="Path 3" fill-rule="evenodd" class="shp0" d="M509.7 427.17C505.35 435.85 496.75 440.97 487.66 441.32L449.89 514.61L401.62 514.61L356.69 592.47L252.62 592.47L207.69 514.61L159.42 514.61L121.65 441.32C112.56 440.97 103.96 435.85 99.61 427.17C94.55 417.03 96.84 405.13 104.38 397.52L115.16 419.03L124.53 419.59L129.69 411.77L118.95 390.25C129.62 388.74 140.5 394.07 145.56 404.18C149.91 412.89 148.82 422.86 143.62 430.37L174.41 490.04L207.69 490.04L252.62 412.19L356.69 412.19L401.62 490.04L434.93 490.04L465.68 430.37C460.49 422.86 459.4 412.89 463.75 404.18C468.84 394.07 479.72 388.74 490.36 390.25L479.62 411.77L484.78 419.59L494.15 419.03L504.93 397.52C512.51 405.13 514.79 417.03 509.7 427.17ZM261.22 530.37L341.56 466.14C332.19 456.56 319.1 450.62 304.67 450.62C276.1 450.62 252.97 473.79 252.97 502.33C252.97 512.68 256.02 522.3 261.22 530.37ZM356.34 502.33C356.34 491.97 353.29 482.35 348.09 474.28L267.74 538.52C277.15 548.1 290.21 554.04 304.67 554.04C333.21 554.04 356.34 530.87 356.34 502.33ZM-451.97 709.85C-451.97 719.98 -455.58 728.13 -462.78 734.29C-469.67 740.03 -478.29 742.9 -488.62 742.9L-570.22 742.9L-570.22 724.27L-488.62 724.27C-483.51 724.27 -479.07 723.12 -475.31 720.82C-471.03 718 -468.89 714.19 -468.89 709.39C-468.89 704.59 -471.08 700.88 -475.47 698.26C-479.12 696.07 -483.51 694.98 -488.62 694.98L-539.06 694.98C-548.35 694.98 -556.13 692.42 -562.39 687.3C-569.08 681.77 -572.42 674.46 -572.42 665.37C-572.42 656.4 -569.08 649.14 -562.39 643.6C-556.13 638.49 -548.35 635.93 -539.06 635.93L-458.4 635.93L-458.4 654.57L-539.06 654.57C-542.61 654.57 -545.63 655.56 -548.14 657.54C-550.65 659.53 -551.9 662.19 -551.9 665.53C-551.9 668.97 -550.65 671.64 -548.14 673.52C-545.63 675.4 -542.61 676.34 -539.06 676.34L-488.62 676.34C-478.29 676.34 -469.67 679.31 -462.78 685.27C-455.58 691.53 -451.97 699.73 -451.97 709.85ZM-314.61 742.9L-375.07 742.9C-390.63 742.9 -403.5 737.73 -413.68 727.4C-423.86 717.06 -428.95 704.01 -428.95 688.24C-428.95 672.58 -423.91 659.95 -413.84 650.34C-403.76 640.73 -390.84 635.93 -375.07 635.93L-314.61 635.93L-314.61 654.57L-375.07 654.57C-385.31 654.57 -393.74 657.86 -400.37 664.44C-407 671.01 -410.31 679.47 -410.31 689.81C-410.31 700.04 -407 708.34 -400.37 714.71C-393.74 721.08 -385.31 724.27 -375.07 724.27L-314.61 724.27L-314.61 742.9ZM-162.07 742.9L-189.63 742.9L-219.55 712.83L-259.8 712.83L-259.8 694.35L-209.68 694.35C-202.79 694.35 -196.99 692.84 -192.3 689.81C-186.97 686.26 -184.31 681.19 -184.31 674.62C-184.31 661.25 -192.76 654.57 -209.68 654.57L-270.76 654.57L-270.76 742.9L-289.4 742.9L-289.4 635.93L-212.65 635.93C-198.87 635.93 -187.75 638.9 -179.29 644.86C-169.59 651.64 -164.73 661.62 -164.73 674.77C-164.73 683.75 -167.55 691.48 -173.19 697.95C-178.41 704.01 -185.51 708.24 -194.49 710.64L-162.07 742.9ZM2.07 742.9L-21.89 742.75L-39.9 712.83L-90.65 712.83L-79.37 694.35L-51.02 694.35L-69.66 663.5L-117.9 742.75L-141.86 742.75L-83.75 646.11C-82.29 643.6 -80.26 641.31 -77.65 639.22C-74.51 636.82 -71.69 635.62 -69.19 635.62C-66.48 635.62 -63.66 636.76 -60.73 639.06C-58.23 641.05 -56.19 643.39 -54.62 646.11L2.07 742.9ZM138.02 674.46C138.02 686.15 133.74 695.6 125.18 702.81C117.24 709.49 107.27 712.83 95.26 712.83L48.12 712.83L48.12 694.35L98.24 694.35C104.4 694.35 109.57 692.52 113.75 688.87C117.92 685.21 120.01 680.36 120.01 674.3C120.01 668.25 117.92 663.44 113.75 659.89C109.57 656.34 104.4 654.57 98.24 654.57L37.16 654.57L37.16 742.9L18.52 742.9L18.52 635.93L95.26 635.93C107.27 635.93 117.24 639.32 125.18 646.11C133.74 653.21 138.02 662.66 138.02 674.46ZM278.36 674.46C278.36 686.15 274.07 695.6 265.51 702.81C257.58 709.49 247.6 712.83 235.6 712.83L188.45 712.83L188.45 694.35L238.57 694.35C244.73 694.35 249.9 692.52 254.08 688.87C258.25 685.21 260.35 680.36 260.35 674.3C260.35 668.25 258.25 663.44 254.08 659.89C249.9 656.34 244.73 654.57 238.57 654.57L177.49 654.57L177.49 742.9L158.85 742.9L158.85 635.93L235.6 635.93C247.6 635.93 257.58 639.32 265.51 646.11C274.07 653.21 278.36 662.66 278.36 674.46ZM417.91 635.93L364.81 707.51L364.81 742.9L346.33 742.9L346.33 707.19L291.83 635.93L315.79 635.93L356.04 688.55L393.79 635.93L417.91 635.93ZM549.78 742.9L531.14 742.9L531.14 698.42L468.34 698.42L468.34 679.79L531.14 679.79L531.14 635.93L549.78 635.93L549.78 742.9ZM459.88 742.9L441.24 742.9L441.24 635.93L459.88 635.93L459.88 742.9ZM697.95 694.82C697.95 712.05 692.78 724.63 682.44 732.56C673.35 739.46 659.89 742.9 642.03 742.9L635.61 742.9C617.75 742.9 604.29 739.46 595.2 732.56C584.86 724.63 579.69 712.05 579.69 694.82L579.69 635.93L598.34 635.93L598.34 694.82C598.34 707.66 602.77 716.17 611.65 720.35C617.39 722.96 627.52 724.27 642.03 724.27C654.14 724.27 663.02 722.44 668.66 718.79C675.76 714.19 679.31 706.2 679.31 694.82L679.31 635.93L697.95 635.93L697.95 694.82ZM889.65 743.06L868.66 743.06L853.16 668.19L817.29 737.26C814.89 741.96 811.55 744.31 807.26 744.31C802.46 744.31 798.81 741.91 796.3 737.11L760.44 668.19L745.09 743.06L723.94 743.06L747.91 644.86C748.53 642.04 749.92 639.59 752.05 637.49C754.19 635.41 756.68 634.36 759.5 634.36C763.57 634.36 767.43 637.86 771.09 644.86L806.79 714.87L842.66 644.86C846.31 637.86 850.18 634.36 854.26 634.36C856.97 634.36 859.47 635.46 861.77 637.65C863.75 639.64 865.11 642.04 865.84 644.86L889.65 743.06ZM1056.61 742.9L1032.65 742.75L1014.63 712.83L963.89 712.83L975.16 694.35L1003.51 694.35L984.87 663.5L936.64 742.75L912.67 742.75L970.78 646.11C972.24 643.6 974.27 641.31 976.89 639.22C980.02 636.82 982.84 635.62 985.35 635.62C988.06 635.62 990.88 636.76 993.8 639.06C996.31 641.05 998.35 643.39 999.91 646.11L1056.61 742.9ZM1181.75 733.66C1181.75 740.55 1179.4 744 1174.7 744C1171.26 744 1167.39 741.86 1163.11 737.58L1094.51 668.66L1094.51 742.9L1076.03 742.9L1076.03 645.17C1076.03 642.66 1076.71 640.5 1078.06 638.67C1079.42 636.84 1081.36 635.93 1083.86 635.93C1087.31 635.93 1090.86 637.76 1094.51 641.41L1163.11 710.17L1163.11 635.93L1181.75 635.93L1181.75 733.66ZM332.03 66.59C331.74 67.62 331.39 68.63 330.99 69.61C326.74 79.97 316.55 87.27 304.66 87.27C300.09 87.27 295.77 86.19 291.95 84.28C291 83.8 290.08 83.27 289.19 82.7C267.93 87.75 251.35 87 248.66 79.87C245.98 72.73 257.96 61.25 277.28 51.04C277.28 51.04 277.29 51.04 277.29 51.04C280.42 49.38 283.75 47.76 287.25 46.2C287.32 46.16 287.4 46.13 287.48 46.09C288.27 45.74 289.08 45.39 289.89 45.04C290.12 44.94 290.37 44.84 290.6 44.74C291.26 44.46 291.92 44.17 292.6 43.9C293.05 43.71 293.5 43.53 293.96 43.35C294.43 43.16 294.9 42.97 295.37 42.78C296.31 42.41 297.26 42.05 298.21 41.69C300.1 40.98 301.97 40.31 303.82 39.67C303.85 39.67 303.86 39.66 303.88 39.65C305.73 39.02 307.57 38.43 309.38 37.87C309.4 37.86 309.42 37.86 309.44 37.85C311.26 37.29 313.05 36.77 314.82 36.29C314.84 36.29 314.85 36.28 314.87 36.28C316.62 35.8 318.36 35.35 320.07 34.95C320.09 34.94 320.1 34.94 320.12 34.93C341.39 29.87 357.96 30.62 360.65 37.76C363.33 44.9 351.36 56.39 332.03 66.59ZM343.3 44.29C341.99 40.79 335.58 39.63 326.54 40.62L326.54 40.62C321.95 41.12 316.68 42.18 311.05 43.76C310.95 43.79 310.86 43.82 310.76 43.85C309.72 44.14 308.67 44.46 307.61 44.79C307.48 44.83 307.34 44.87 307.21 44.92C306.15 45.25 305.1 45.6 304.03 45.96C303.91 46.01 303.79 46.05 303.67 46.09C302.56 46.47 301.45 46.87 300.33 47.3C299.21 47.72 298.11 48.15 297.03 48.59C296.91 48.64 296.78 48.69 296.66 48.74C295.62 49.16 294.61 49.59 293.61 50.03C293.46 50.09 293.32 50.15 293.18 50.22C292.18 50.66 291.2 51.11 290.24 51.56C290.13 51.61 290.02 51.67 289.91 51.72C288.91 52.19 287.94 52.67 286.99 53.15C286.96 53.17 286.93 53.18 286.9 53.2C282.86 55.26 279.26 57.41 276.22 59.53C268.76 64.75 264.7 69.85 266.02 73.34C267.33 76.84 273.74 78 282.78 77.01C282.78 77.01 282.78 77.01 282.78 77.01C282.23 76.35 281.71 75.67 281.23 74.96C278.65 71.23 276.95 66.86 276.4 62.13C282.05 57.99 290.4 53.38 301.1 49.35C310.86 45.68 320.43 43.33 328.09 42.67C330.67 46.4 332.37 50.79 332.92 55.52C333.02 56.37 333.08 57.23 333.1 58.1C340.56 52.88 344.61 47.78 343.3 44.29ZM297.44 39.63C290.89 42.09 284.38 44.96 278.31 48.06C282.55 37.68 292.74 30.35 304.66 30.35C309.22 30.35 313.54 31.44 317.37 33.35C310.93 34.98 304.2 37.09 297.44 39.63Z" />
	</g>
</svg>