<svg xmlns="http://www.w3.org/2000/svg" viewBox="0 0 2083 740" width="2083" height="740">
	<defs>
		<clipPath clipPathUnits="userSpaceOnUse" id="cp1">
			<path d="M0 -667L2083 -667L2083 1416L0 1416L0 -667Z" />
		</clipPath>
	</defs>
	<style>
		tspan { white-space:pre }
		.shp0 { fill: #97b2e0 } 
	</style>
	<g id="Clip-Path: Page 1" clip-path="url(#cp1)">
		<g id="Page 1">
			<path id="Path 2" fill-rule="evenodd" class="shp0" d="M888.02 331.06L888.02 323.13L1195.3 323.13L1195.3 331.06C1195.3 341.17 1187.12 349.35 1177.04 349.35L906.27 349.35C896.2 349.35 888.02 341.17 888.02 331.06ZM1195.31 164.18L1195.31 303.64L888.03 303.64L888.03 164.18C888.03 154.11 896.21 145.93 906.29 145.93L1033.42 145.93L1033.42 63.14L1049.89 63.14L1049.89 145.93L1177.06 145.93C1187.13 145.93 1195.31 154.11 1195.31 164.18ZM996.92 233.61C996.92 219.15 985.19 207.43 970.73 207.43C956.27 207.43 944.51 219.15 944.51 233.61C944.51 248.07 956.27 259.8 970.73 259.8C985.19 259.8 996.92 248.07 996.92 233.61ZM1138.8 233.61C1138.8 219.15 1127.07 207.43 1112.61 207.43C1098.15 207.43 1086.43 219.15 1086.43 233.61C1086.43 248.07 1098.15 259.8 1112.61 259.8C1127.07 259.8 1138.8 248.07 1138.8 233.61ZM1082.53 371.81L1010.03 371.81C1002 371.81 995.49 365.3 995.49 357.27L1067.99 357.27C1076.02 357.27 1082.53 363.78 1082.53 371.81ZM1067.99 378.24C1076.02 378.24 1082.53 384.74 1082.53 392.77L1010.03 392.77C1002 392.77 995.49 386.26 995.49 378.24L1067.99 378.24Z" />
			<path id="Path 3" fill-rule="evenodd" class="shp0" d="M1246.7 414.18C1242.35 422.85 1233.75 427.97 1224.66 428.32L1186.89 501.61L1138.62 501.61L1093.69 579.47L989.62 579.47L944.69 501.61L896.42 501.61L858.65 428.32C849.56 427.97 840.96 422.85 836.61 414.18C831.55 404.03 833.84 392.13 841.38 384.52L852.16 406.03L861.53 406.59L866.69 398.77L855.95 377.25C866.62 375.74 877.5 381.07 882.56 391.18C886.91 399.89 885.82 409.86 880.63 417.37L911.41 477.04L944.69 477.04L989.62 399.19L1093.69 399.19L1138.62 477.04L1171.93 477.04L1202.68 417.37C1197.49 409.86 1196.4 399.89 1200.75 391.18C1205.84 381.07 1216.72 375.74 1227.36 377.25L1216.62 398.77L1221.78 406.59L1231.15 406.03L1241.93 384.52C1249.51 392.13 1251.79 404.03 1246.7 414.18ZM998.22 517.37L1078.56 453.14C1069.19 443.56 1056.1 437.62 1041.67 437.62C1013.1 437.62 989.97 460.79 989.97 489.33C989.97 499.68 993.02 509.3 998.22 517.37ZM1093.34 489.33C1093.34 478.98 1090.29 469.35 1085.09 461.28L1004.74 525.52C1014.15 535.1 1027.21 541.04 1041.67 541.04C1070.21 541.04 1093.34 517.87 1093.34 489.33ZM285.03 696.85C285.03 706.98 281.42 715.13 274.22 721.29C267.33 727.03 258.71 729.9 248.38 729.9L166.78 729.9L166.78 711.27L248.38 711.27C253.49 711.27 257.93 710.12 261.69 707.82C265.97 705 268.11 701.19 268.11 696.39C268.11 691.59 265.92 687.88 261.53 685.26C257.88 683.07 253.49 681.98 248.38 681.98L197.94 681.98C188.65 681.98 180.87 679.42 174.61 674.3C167.92 668.77 164.58 661.46 164.58 652.37C164.58 643.4 167.92 636.14 174.61 630.6C180.87 625.49 188.65 622.93 197.94 622.93L278.6 622.93L278.6 641.57L197.94 641.57C194.39 641.57 191.37 642.56 188.86 644.54C186.35 646.53 185.1 649.19 185.1 652.53C185.1 655.97 186.35 658.64 188.86 660.52C191.37 662.4 194.39 663.34 197.94 663.34L248.38 663.34C258.71 663.34 267.33 666.31 274.22 672.27C281.42 678.53 285.03 686.73 285.03 696.85ZM422.39 729.9L361.93 729.9C346.37 729.9 333.5 724.73 323.32 714.4C313.14 704.06 308.05 691.01 308.05 675.24C308.05 659.58 313.09 646.95 323.16 637.34C333.24 627.73 346.16 622.93 361.93 622.93L422.39 622.93L422.39 641.57L361.93 641.57C351.69 641.57 343.26 644.86 336.63 651.44C330 658.01 326.69 666.47 326.69 676.81C326.69 687.04 330 695.34 336.63 701.71C343.26 708.08 351.69 711.27 361.93 711.27L422.39 711.27L422.39 729.9ZM574.93 729.9L547.37 729.9L517.45 699.83L477.2 699.83L477.2 681.35L527.32 681.35C534.21 681.35 540.01 679.84 544.7 676.81C550.03 673.26 552.69 668.19 552.69 661.62C552.69 648.25 544.24 641.57 527.32 641.57L466.24 641.57L466.24 729.9L447.6 729.9L447.6 622.93L524.35 622.93C538.13 622.93 549.25 625.9 557.71 631.86C567.41 638.64 572.27 648.62 572.27 661.77C572.27 670.75 569.45 678.48 563.81 684.95C558.59 691.01 551.49 695.24 542.51 697.64L574.93 729.9ZM739.08 729.9L715.11 729.75L697.1 699.83L646.35 699.83L657.63 681.35L685.98 681.35L667.34 650.5L619.1 729.75L595.14 729.75L653.25 633.11C654.71 630.6 656.74 628.31 659.35 626.22C662.49 623.82 665.31 622.62 667.81 622.62C670.52 622.62 673.34 623.76 676.27 626.06C678.78 628.05 680.81 630.39 682.38 633.11L739.08 729.9ZM875.02 661.46C875.02 673.15 870.74 682.6 862.18 689.81C854.24 696.49 844.27 699.83 832.26 699.83L785.12 699.83L785.12 681.35L835.24 681.35C841.4 681.35 846.57 679.52 850.75 675.87C854.92 672.21 857.01 667.36 857.01 661.3C857.01 655.25 854.92 650.44 850.75 646.89C846.57 643.34 841.4 641.57 835.24 641.57L774.16 641.57L774.16 729.9L755.52 729.9L755.52 622.93L832.26 622.93C844.27 622.93 854.24 626.32 862.18 633.11C870.74 640.21 875.02 649.66 875.02 661.46ZM1015.36 661.46C1015.36 673.15 1011.07 682.6 1002.51 689.81C994.58 696.49 984.6 699.83 972.6 699.83L925.45 699.83L925.45 681.35L975.57 681.35C981.73 681.35 986.9 679.52 991.08 675.87C995.25 672.21 997.35 667.36 997.35 661.3C997.35 655.25 995.25 650.44 991.08 646.89C986.9 643.34 981.73 641.57 975.57 641.57L914.49 641.57L914.49 729.9L895.85 729.9L895.85 622.93L972.6 622.93C984.6 622.93 994.58 626.32 1002.51 633.11C1011.07 640.21 1015.36 649.66 1015.36 661.46ZM1154.91 622.93L1101.81 694.51L1101.81 729.9L1083.33 729.9L1083.33 694.19L1028.83 622.93L1052.79 622.93L1093.04 675.55L1130.79 622.93L1154.91 622.93ZM1286.78 729.9L1268.14 729.9L1268.14 685.42L1205.34 685.42L1205.34 666.79L1268.14 666.79L1268.14 622.93L1286.78 622.93L1286.78 729.9ZM1196.88 729.9L1178.24 729.9L1178.24 622.93L1196.88 622.93L1196.88 729.9ZM1434.95 681.82C1434.95 699.05 1429.78 711.63 1419.44 719.56C1410.35 726.46 1396.89 729.9 1379.03 729.9L1372.61 729.9C1354.75 729.9 1341.29 726.46 1332.2 719.56C1321.86 711.63 1316.69 699.05 1316.69 681.82L1316.69 622.93L1335.34 622.93L1335.34 681.82C1335.34 694.66 1339.77 703.17 1348.65 707.35C1354.39 709.96 1364.52 711.27 1379.03 711.27C1391.14 711.27 1400.02 709.44 1405.66 705.79C1412.76 701.19 1416.31 693.2 1416.31 681.82L1416.31 622.93L1434.95 622.93L1434.95 681.82ZM1626.65 730.06L1605.66 730.06L1590.16 655.19L1554.29 724.26C1551.89 728.96 1548.55 731.31 1544.26 731.31C1539.46 731.31 1535.81 728.91 1533.3 724.11L1497.44 655.19L1482.09 730.06L1460.94 730.06L1484.91 631.86C1485.53 629.04 1486.92 626.59 1489.05 624.49C1491.19 622.41 1493.68 621.36 1496.5 621.36C1500.57 621.36 1504.43 624.86 1508.09 631.86L1543.79 701.87L1579.66 631.86C1583.31 624.86 1587.18 621.36 1591.26 621.36C1593.97 621.36 1596.47 622.46 1598.77 624.65C1600.75 626.64 1602.11 629.04 1602.84 631.86L1626.65 730.06ZM1793.61 729.9L1769.65 729.75L1751.63 699.83L1700.89 699.83L1712.16 681.35L1740.51 681.35L1721.88 650.5L1673.64 729.75L1649.67 729.75L1707.78 633.11C1709.24 630.6 1711.27 628.31 1713.89 626.22C1717.02 623.82 1719.84 622.62 1722.35 622.62C1725.06 622.62 1727.88 623.76 1730.8 626.06C1733.31 628.05 1735.35 630.39 1736.91 633.11L1793.61 729.9ZM1918.75 720.66C1918.75 727.55 1916.4 731 1911.7 731C1908.26 731 1904.39 728.86 1900.11 724.58L1831.51 655.66L1831.51 729.9L1813.03 729.9L1813.03 632.17C1813.03 629.66 1813.71 627.5 1815.06 625.67C1816.42 623.84 1818.36 622.93 1820.86 622.93C1824.31 622.93 1827.86 624.76 1831.51 628.41L1900.11 697.17L1900.11 622.93L1918.75 622.93L1918.75 720.66ZM1069.03 53.59C1068.74 54.62 1068.39 55.63 1067.99 56.61C1063.74 66.97 1053.55 74.27 1041.66 74.27C1037.09 74.27 1032.77 73.19 1028.95 71.28C1028 70.8 1027.08 70.27 1026.19 69.7C1004.93 74.75 988.35 74 985.66 66.87C982.98 59.73 994.96 48.25 1014.28 38.04L1014.29 38.04C1017.43 36.38 1020.75 34.76 1024.25 33.2C1024.32 33.16 1024.4 33.13 1024.48 33.09C1025.27 32.74 1026.08 32.39 1026.89 32.04C1027.12 31.94 1027.37 31.84 1027.6 31.74C1028.26 31.46 1028.93 31.17 1029.6 30.9C1030.05 30.71 1030.5 30.53 1030.96 30.35C1031.43 30.16 1031.9 29.97 1032.38 29.78C1033.31 29.41 1034.26 29.05 1035.21 28.69C1037.1 27.98 1038.97 27.31 1040.83 26.67C1040.85 26.67 1040.86 26.66 1040.88 26.65C1042.73 26.02 1044.57 25.43 1046.38 24.87C1046.4 24.86 1046.42 24.86 1046.44 24.85C1048.26 24.29 1050.05 23.77 1051.82 23.29C1051.84 23.29 1051.85 23.28 1051.87 23.28C1053.62 22.8 1055.36 22.35 1057.07 21.95C1057.09 21.94 1057.1 21.94 1057.13 21.93C1078.39 16.88 1094.96 17.62 1097.65 24.76C1100.33 31.9 1088.36 43.39 1069.03 53.59ZM1080.3 31.29C1078.99 27.79 1072.58 26.63 1063.54 27.62C1058.95 28.12 1053.68 29.18 1048.05 30.76C1047.95 30.79 1047.86 30.82 1047.76 30.85C1046.72 31.14 1045.67 31.46 1044.61 31.79C1044.48 31.83 1044.34 31.87 1044.21 31.92C1043.15 32.25 1042.1 32.6 1041.03 32.96C1040.91 33.01 1040.79 33.05 1040.67 33.09C1039.56 33.48 1038.45 33.87 1037.33 34.3C1036.21 34.72 1035.11 35.15 1034.03 35.59C1033.91 35.64 1033.78 35.69 1033.66 35.74C1032.63 36.16 1031.61 36.59 1030.61 37.03C1030.46 37.09 1030.32 37.15 1030.18 37.22C1029.18 37.66 1028.2 38.11 1027.24 38.56C1027.13 38.61 1027.02 38.67 1026.91 38.72C1025.91 39.19 1024.94 39.67 1023.99 40.15C1023.96 40.17 1023.93 40.18 1023.9 40.2C1019.86 42.26 1016.26 44.41 1013.22 46.53C1005.76 51.75 1001.7 56.85 1003.02 60.34C1004.33 63.84 1010.74 65 1019.78 64.01C1019.23 63.35 1018.71 62.67 1018.23 61.96C1015.65 58.23 1013.95 53.86 1013.4 49.13C1019.05 44.99 1027.4 40.38 1038.1 36.35C1047.86 32.68 1057.43 30.33 1065.09 29.67C1067.67 33.4 1069.37 37.79 1069.92 42.52C1070.02 43.37 1070.08 44.23 1070.1 45.1C1077.56 39.88 1081.61 34.78 1080.3 31.29ZM1034.44 26.63C1027.89 29.09 1021.38 31.96 1015.31 35.06C1019.55 24.68 1029.74 17.35 1041.66 17.35C1046.22 17.35 1050.54 18.44 1054.37 20.35C1047.93 21.98 1041.2 24.09 1034.44 26.63Z" />
		</g>
	</g>
</svg>